<mxfile host="app.diagrams.net" modified="2022-04-09T16:17:37.410Z" agent="5.0 (Macintosh; Intel Mac OS X 10_15_7) AppleWebKit/537.36 (KHTML, like Gecko) Chrome/100.0.4896.75 Safari/537.36" etag="DkRCplo5wcn8K_2k3nSa" version="17.4.2" type="github">
  <diagram name="Page-1" id="2a216829-ef6e-dabb-86c1-c78162f3ba2b">
    <mxGraphModel dx="1426" dy="744" grid="1" gridSize="10" guides="1" tooltips="1" connect="1" arrows="1" fold="1" page="1" pageScale="1" pageWidth="850" pageHeight="1100" background="none" math="0" shadow="0">
      <root>
        <mxCell id="0" />
        <mxCell id="1" parent="0" />
        <mxCell id="3jDLVkp8Fc12cworBFek-3" value="" style="swimlane;html=1;startSize=20;fontStyle=0;collapsible=0;horizontal=0;swimlaneLine=1;swimlaneFillColor=#ffffff;strokeWidth=2;" vertex="1" parent="1">
          <mxGeometry x="5" y="20" width="865" height="280" as="geometry" />
        </mxCell>
        <mxCell id="3jDLVkp8Fc12cworBFek-4" value="Knowledge Bases Parser Service" style="text;html=1;align=center;verticalAlign=middle;resizable=0;points=[];autosize=1;strokeColor=none;fillColor=none;rotation=-90;" vertex="1" parent="3jDLVkp8Fc12cworBFek-3">
          <mxGeometry x="-85" y="100" width="190" height="20" as="geometry" />
        </mxCell>
        <mxCell id="3jDLVkp8Fc12cworBFek-24" style="edgeStyle=orthogonalEdgeStyle;rounded=0;orthogonalLoop=1;jettySize=auto;html=1;" edge="1" parent="3jDLVkp8Fc12cworBFek-3" source="3jDLVkp8Fc12cworBFek-1" target="3jDLVkp8Fc12cworBFek-5">
          <mxGeometry relative="1" as="geometry" />
        </mxCell>
        <mxCell id="3jDLVkp8Fc12cworBFek-1" value="" style="points=[[0.145,0.145,0],[0.5,0,0],[0.855,0.145,0],[1,0.5,0],[0.855,0.855,0],[0.5,1,0],[0.145,0.855,0],[0,0.5,0]];shape=mxgraph.bpmn.event;html=1;verticalLabelPosition=bottom;labelBackgroundColor=#ffffff;verticalAlign=top;align=center;perimeter=ellipsePerimeter;outlineConnect=0;aspect=fixed;outline=standard;symbol=timer;" vertex="1" parent="3jDLVkp8Fc12cworBFek-3">
          <mxGeometry x="70" y="80" width="50" height="50" as="geometry" />
        </mxCell>
        <mxCell id="3jDLVkp8Fc12cworBFek-2" value="Every Day at 00:00" style="text;html=1;align=center;verticalAlign=middle;resizable=0;points=[];autosize=1;strokeColor=none;fillColor=none;" vertex="1" parent="3jDLVkp8Fc12cworBFek-3">
          <mxGeometry x="35" y="140" width="120" height="20" as="geometry" />
        </mxCell>
        <mxCell id="3jDLVkp8Fc12cworBFek-25" style="edgeStyle=orthogonalEdgeStyle;rounded=0;orthogonalLoop=1;jettySize=auto;html=1;entryX=0;entryY=0.5;entryDx=0;entryDy=0;entryPerimeter=0;" edge="1" parent="3jDLVkp8Fc12cworBFek-3" source="3jDLVkp8Fc12cworBFek-5" target="3jDLVkp8Fc12cworBFek-16">
          <mxGeometry relative="1" as="geometry">
            <Array as="points">
              <mxPoint x="225" y="105" />
              <mxPoint x="225" y="40" />
            </Array>
          </mxGeometry>
        </mxCell>
        <mxCell id="3jDLVkp8Fc12cworBFek-26" style="edgeStyle=orthogonalEdgeStyle;rounded=0;orthogonalLoop=1;jettySize=auto;html=1;" edge="1" parent="3jDLVkp8Fc12cworBFek-3" source="3jDLVkp8Fc12cworBFek-5" target="3jDLVkp8Fc12cworBFek-17">
          <mxGeometry relative="1" as="geometry" />
        </mxCell>
        <mxCell id="3jDLVkp8Fc12cworBFek-27" style="edgeStyle=orthogonalEdgeStyle;rounded=0;orthogonalLoop=1;jettySize=auto;html=1;entryX=0;entryY=0.5;entryDx=0;entryDy=0;entryPerimeter=0;" edge="1" parent="3jDLVkp8Fc12cworBFek-3" source="3jDLVkp8Fc12cworBFek-5" target="3jDLVkp8Fc12cworBFek-18">
          <mxGeometry relative="1" as="geometry">
            <Array as="points">
              <mxPoint x="225" y="105" />
              <mxPoint x="225" y="170" />
            </Array>
          </mxGeometry>
        </mxCell>
        <mxCell id="3jDLVkp8Fc12cworBFek-5" value="" style="points=[[0.25,0.25,0],[0.5,0,0],[0.75,0.25,0],[1,0.5,0],[0.75,0.75,0],[0.5,1,0],[0.25,0.75,0],[0,0.5,0]];shape=mxgraph.bpmn.gateway2;html=1;verticalLabelPosition=bottom;labelBackgroundColor=#ffffff;verticalAlign=top;align=center;perimeter=rhombusPerimeter;outlineConnect=0;outline=none;symbol=none;gwType=parallel;" vertex="1" parent="3jDLVkp8Fc12cworBFek-3">
          <mxGeometry x="165" y="80" width="50" height="50" as="geometry" />
        </mxCell>
        <mxCell id="3jDLVkp8Fc12cworBFek-31" style="edgeStyle=orthogonalEdgeStyle;rounded=0;orthogonalLoop=1;jettySize=auto;html=1;" edge="1" parent="3jDLVkp8Fc12cworBFek-3" source="3jDLVkp8Fc12cworBFek-6" target="3jDLVkp8Fc12cworBFek-19">
          <mxGeometry relative="1" as="geometry" />
        </mxCell>
        <mxCell id="3jDLVkp8Fc12cworBFek-6" value="" style="points=[[0.25,0.25,0],[0.5,0,0],[0.75,0.25,0],[1,0.5,0],[0.75,0.75,0],[0.5,1,0],[0.25,0.75,0],[0,0.5,0]];shape=mxgraph.bpmn.gateway2;html=1;verticalLabelPosition=bottom;labelBackgroundColor=#ffffff;verticalAlign=top;align=center;perimeter=rhombusPerimeter;outlineConnect=0;outline=none;symbol=none;gwType=parallel;" vertex="1" parent="3jDLVkp8Fc12cworBFek-3">
          <mxGeometry x="405" y="80" width="50" height="50" as="geometry" />
        </mxCell>
        <mxCell id="3jDLVkp8Fc12cworBFek-28" style="edgeStyle=orthogonalEdgeStyle;rounded=0;orthogonalLoop=1;jettySize=auto;html=1;entryX=0;entryY=0.5;entryDx=0;entryDy=0;entryPerimeter=0;" edge="1" parent="3jDLVkp8Fc12cworBFek-3" source="3jDLVkp8Fc12cworBFek-16" target="3jDLVkp8Fc12cworBFek-6">
          <mxGeometry relative="1" as="geometry">
            <Array as="points">
              <mxPoint x="385" y="40" />
              <mxPoint x="385" y="105" />
            </Array>
          </mxGeometry>
        </mxCell>
        <mxCell id="3jDLVkp8Fc12cworBFek-16" value="Fetching Content from Confluence" style="points=[[0.25,0,0],[0.5,0,0],[0.75,0,0],[1,0.25,0],[1,0.5,0],[1,0.75,0],[0.75,1,0],[0.5,1,0],[0.25,1,0],[0,0.75,0],[0,0.5,0],[0,0.25,0]];shape=mxgraph.bpmn.task;whiteSpace=wrap;rectStyle=rounded;size=10;taskMarker=abstract;" vertex="1" parent="3jDLVkp8Fc12cworBFek-3">
          <mxGeometry x="245" y="10" width="120" height="60" as="geometry" />
        </mxCell>
        <mxCell id="3jDLVkp8Fc12cworBFek-29" style="edgeStyle=orthogonalEdgeStyle;rounded=0;orthogonalLoop=1;jettySize=auto;html=1;" edge="1" parent="3jDLVkp8Fc12cworBFek-3" source="3jDLVkp8Fc12cworBFek-17" target="3jDLVkp8Fc12cworBFek-6">
          <mxGeometry relative="1" as="geometry" />
        </mxCell>
        <mxCell id="3jDLVkp8Fc12cworBFek-17" value="Fetching Content from Microsoft OneNote" style="points=[[0.25,0,0],[0.5,0,0],[0.75,0,0],[1,0.25,0],[1,0.5,0],[1,0.75,0],[0.75,1,0],[0.5,1,0],[0.25,1,0],[0,0.75,0],[0,0.5,0],[0,0.25,0]];shape=mxgraph.bpmn.task;whiteSpace=wrap;rectStyle=rounded;size=10;taskMarker=abstract;" vertex="1" parent="3jDLVkp8Fc12cworBFek-3">
          <mxGeometry x="245" y="75" width="120" height="60" as="geometry" />
        </mxCell>
        <mxCell id="3jDLVkp8Fc12cworBFek-30" style="edgeStyle=orthogonalEdgeStyle;rounded=0;orthogonalLoop=1;jettySize=auto;html=1;entryX=0;entryY=0.5;entryDx=0;entryDy=0;entryPerimeter=0;" edge="1" parent="3jDLVkp8Fc12cworBFek-3" source="3jDLVkp8Fc12cworBFek-18" target="3jDLVkp8Fc12cworBFek-6">
          <mxGeometry relative="1" as="geometry">
            <Array as="points">
              <mxPoint x="385" y="170" />
              <mxPoint x="385" y="105" />
            </Array>
          </mxGeometry>
        </mxCell>
        <mxCell id="3jDLVkp8Fc12cworBFek-18" value="Fetching Content from Microsoft Outlook" style="points=[[0.25,0,0],[0.5,0,0],[0.75,0,0],[1,0.25,0],[1,0.5,0],[1,0.75,0],[0.75,1,0],[0.5,1,0],[0.25,1,0],[0,0.75,0],[0,0.5,0],[0,0.25,0]];shape=mxgraph.bpmn.task;whiteSpace=wrap;rectStyle=rounded;size=10;taskMarker=abstract;" vertex="1" parent="3jDLVkp8Fc12cworBFek-3">
          <mxGeometry x="245" y="140" width="120" height="60" as="geometry" />
        </mxCell>
        <mxCell id="3jDLVkp8Fc12cworBFek-32" style="edgeStyle=orthogonalEdgeStyle;rounded=0;orthogonalLoop=1;jettySize=auto;html=1;" edge="1" parent="3jDLVkp8Fc12cworBFek-3" source="3jDLVkp8Fc12cworBFek-19" target="3jDLVkp8Fc12cworBFek-20">
          <mxGeometry relative="1" as="geometry" />
        </mxCell>
        <mxCell id="3jDLVkp8Fc12cworBFek-19" value="Parsing and Analysing Content Data  " style="points=[[0.25,0,0],[0.5,0,0],[0.75,0,0],[1,0.25,0],[1,0.5,0],[1,0.75,0],[0.75,1,0],[0.5,1,0],[0.25,1,0],[0,0.75,0],[0,0.5,0],[0,0.25,0]];shape=mxgraph.bpmn.task;whiteSpace=wrap;rectStyle=rounded;size=10;taskMarker=abstract;" vertex="1" parent="3jDLVkp8Fc12cworBFek-3">
          <mxGeometry x="485" y="75" width="120" height="60" as="geometry" />
        </mxCell>
        <mxCell id="3jDLVkp8Fc12cworBFek-33" style="edgeStyle=orthogonalEdgeStyle;rounded=0;orthogonalLoop=1;jettySize=auto;html=1;entryX=0;entryY=0.5;entryDx=0;entryDy=0;entryPerimeter=0;" edge="1" parent="3jDLVkp8Fc12cworBFek-3" source="3jDLVkp8Fc12cworBFek-20" target="3jDLVkp8Fc12cworBFek-23">
          <mxGeometry relative="1" as="geometry" />
        </mxCell>
        <mxCell id="3jDLVkp8Fc12cworBFek-20" value="Saving Updated Data" style="points=[[0.25,0,0],[0.5,0,0],[0.75,0,0],[1,0.25,0],[1,0.5,0],[1,0.75,0],[0.75,1,0],[0.5,1,0],[0.25,1,0],[0,0.75,0],[0,0.5,0],[0,0.25,0]];shape=mxgraph.bpmn.task;whiteSpace=wrap;rectStyle=rounded;size=10;taskMarker=abstract;" vertex="1" parent="3jDLVkp8Fc12cworBFek-3">
          <mxGeometry x="635" y="75" width="120" height="60" as="geometry" />
        </mxCell>
        <mxCell id="3jDLVkp8Fc12cworBFek-23" value="" style="points=[[0.145,0.145,0],[0.5,0,0],[0.855,0.145,0],[1,0.5,0],[0.855,0.855,0],[0.5,1,0],[0.145,0.855,0],[0,0.5,0]];shape=mxgraph.bpmn.event;html=1;verticalLabelPosition=bottom;labelBackgroundColor=#ffffff;verticalAlign=top;align=center;perimeter=ellipsePerimeter;outlineConnect=0;aspect=fixed;outline=end;symbol=terminate;" vertex="1" parent="3jDLVkp8Fc12cworBFek-3">
          <mxGeometry x="785" y="80" width="50" height="50" as="geometry" />
        </mxCell>
        <mxCell id="3jDLVkp8Fc12cworBFek-35" value="" style="shape=mxgraph.bpmn.data;labelPosition=center;verticalLabelPosition=bottom;align=center;verticalAlign=top;whiteSpace=wrap;size=15;html=1;" vertex="1" parent="3jDLVkp8Fc12cworBFek-3">
          <mxGeometry x="475" y="190" width="95" height="60" as="geometry" />
        </mxCell>
        <mxCell id="3jDLVkp8Fc12cworBFek-36" value="Elastic Search &lt;br&gt;Text analysis" style="text;html=1;align=center;verticalAlign=middle;resizable=0;points=[];autosize=1;strokeColor=none;fillColor=none;" vertex="1" parent="3jDLVkp8Fc12cworBFek-3">
          <mxGeometry x="475" y="205" width="90" height="30" as="geometry" />
        </mxCell>
        <mxCell id="3jDLVkp8Fc12cworBFek-37" value="" style="edgeStyle=elbowEdgeStyle;fontSize=12;html=1;endFill=0;startFill=0;endSize=6;startSize=6;dashed=1;dashPattern=1 4;endArrow=none;startArrow=none;rounded=0;entryX=0.5;entryY=1;entryDx=0;entryDy=0;entryPerimeter=0;exitX=0;exitY=0;exitDx=40;exitDy=0;exitPerimeter=0;" edge="1" parent="3jDLVkp8Fc12cworBFek-3" source="3jDLVkp8Fc12cworBFek-35" target="3jDLVkp8Fc12cworBFek-19">
          <mxGeometry width="160" relative="1" as="geometry">
            <mxPoint x="315" y="180" as="sourcePoint" />
            <mxPoint x="475" y="180" as="targetPoint" />
            <Array as="points">
              <mxPoint x="545" y="160" />
            </Array>
          </mxGeometry>
        </mxCell>
      </root>
    </mxGraphModel>
  </diagram>
</mxfile>
